#!OML:ASF F:\VICON\USERDATA\INSTALL\rory3\rory3.ASF
:FULLY-SPECIFIED
:DEGREES
37
root 0.5974993773795659 16.612046370807366 -15.871855679060804 13.792624885765775 -1.411135666961178 -2.5133293270204433
lfemur -36.11165413326919 10.647995911053304 -19.816784195269125
ltibia 42.21408036602632
lfoot -15.885072971369397 6.481550579216987
ltoes -13.21144063181433
rfemur -35.513190540063384 -3.073925614738041 21.725789848947628
rtibia 43.63987067445537
rfoot -18.498150282563046 -3.5028413986648674
rtoes 2.744264238037168
lowerback 6.318681124062333 0.3402235840888749 0.6947163133784802
upperback 8.418584468429371 0.3248777192773939 1.9708492696828817
thorax 2.4976327663765954 0.12620655009264714 1.6956589203630483
lowerneck -13.426123451306944 0.16249322856268833 -1.789770152790727
upperneck 18.659600278834212 0.5183989337843682 0.208979485733519
head 7.811961645531111 0.12398465528271674 0.56737503775348
lclavicle -1.7310720411745801e-15 2.617417158168753e-16
lhumerus -25.13344109846036 -8.659048190149472 89.0009040326061
lradius 24.06888593178133
lwrist 11.211647737044785
lhand -24.16647648915713 -3.1650546149910683
lfingers 7.125019999999999
lthumb 2.316440201644288 26.76910957177139
rclavicle -1.73107204117458e-15 2.6174171581687506e-16
rhumerus -23.62664709850306 -9.268404776360644 -80.01417512441654
rradius 30.633547956758264
rwrist 30.29234321050515
rhand -16.523580873117346 -26.83349510085744
rfingers 7.125019999999999
rthumb 9.694655842279158 -56.61150742192817
38
root 0.5999585093789976 16.47892427466776 -16.539275021419247 14.586392331871973 -1.4208731585737437 -2.55992123322419
lfemur -38.25873884900108 10.837824964521207 -20.055905673330436
ltibia 44.7064451627275
lfoot -16.68045522433067 6.935991005200835
ltoes -14.116725091466549
rfemur -37.589048366838384 -3.163124554748538 22.009478669016186
rtibia 46.30174476845101
rfoot -19.358254211659847 -3.9557233717510942
rtoes 2.0298954001980523
lowerback 7.375064291422231 0.40445441685805694 0.6181112638096076
upperback 8.634275439011574 0.41746960944583084 2.006203435450376
thorax 1.953242525100734 0.1659273805756109 1.7556586618049281
lowerneck -13.826121856103013 0.16313551673156007 -1.7730283266008922
upperneck 16.936546331282315 0.520750642713218 0.08770467935137893
head 7.25642598858502 0.13392548483405683 0.53221457375842
lclavicle -1.72664632184773e-15 2.701517531861775e-16
lhumerus -26.941153528873574 -8.544633324581588 88.66962313387477
lradius 24.063223801962593
lwrist 12.123731794173361
lhand -24.181499413458212 -3.2008168220466677
lfingers 7.125019999999999
lthumb 2.301917037836942 26.731743730512974
rclavicle -1.7266463218477302e-15 2.701517531861775e-16
rhumerus -24.81546179828512 -9.17111325532759 -79.40661576711436
rradius 30.4562972826799
rwrist 30.154613297723753
rhand -16.444336377230496 -26.714855153812696
rfingers 7.125019999999999
rthumb 9.771069452125936 -56.484048999646596
39
root 0.5900568983657857 16.370387934551168 -16.911197943649867 15.437902473762431 -1.3997410681557882 -2.6134459546434394
lfemur -41.03830572801126 10.904858484940327 -20.260456874995388
ltibia 47.54069536498305
lfoot -17.230361784620378 7.659167826916281
ltoes -15.062828747936269
rfemur -40.33317864266263 -3.2349974148235034 22.309941666409287
rtibia 49.26934119205734
rfoot -19.93869766329955 -4.686354546757492
rtoes 1.8782325850536807
lowerback 8.566188138255747 0.44217133992712065 0.5635903327617416
upperback 8.89863956789436 0.4881236443566071 2.0519562753169702
thorax 1.3609735228246613 0.1945105687864866 1.8088357072423191
lowerneck -14.152768524378873 0.151548693044871 -1.7847202252777343
upperneck 14.907656782582585 0.501040749070877 -0.002232246648832037
head 6.583299379660452 0.13869761685883894 0.5058467619120985
lclavicle -1.7746027944632724e-15 2.0194096534393353e-16
lhumerus -28.556591048476452 -8.253402418385743 88.17827849252245
lradius 23.719879595632566
lwrist 12.568045140814291
lhand -24.256970121751223 -3.203273358427664
lfingers 7.125019999999999
lthumb 2.229049062950501 26.72953961169364
rclavicle -1.7746027944632724e-15 2.0194096534393345e-16
rhumerus -26.1132162989101 -9.06031755309094 -78.80665709172528
rradius 30.402212345308936
rwrist 29.973657171185785
rhand -16.291468482696466 -26.607098779199493
rfingers 7.125019999999999
rthumb 9.918529956537007 -56.3660721351449
40
root 0.5892898898935724 16.186805114525676 -17.343194608067368 16.359216914960864 -1.3896823356936014 -2.674504205308766
lfemur -43.67576595689589 10.888308940541105 -20.493284855467344
ltibia 50.03478576711984
lfoot -18.291956211641597 8.332067977941758
ltoes -15.797557472019683
rfemur -42.965316866510335 -3.2743915848542824 22.56996374609115
rtibia 51.98208611866122
rfoot -21.081328596919015 -5.211480123690421
rtoes 0.8677570261670384
lowerback 9.554775295951025 0.4825012841520341 0.47583226291249503
upperback 8.94080223727169 0.5539396468714155 2.0847514806017156
thorax 0.6564324772644907 0.22118734835982762 1.854484436946382
lowerneck -14.678345329151693 0.13092381881101406 -1.7884139343760634
upperneck 12.838923148767707 0.45561611716750167 -0.08173442222486638
head 5.934823048907609 0.13862820207477136 0.48591313545107745
lclavicle -1.887585141661463e-15 5.4451297823588417e-17
lhumerus -31.223569899280072 -8.082985014567281 87.42059137264913
lradius 23.426471738541295
lwrist 13.3262303785934
lhand -24.349366307646456 -3.3036982045174907
lfingers 7.125019999999999
lthumb 2.1398387029287758 26.631263837291783
rclavicle -1.887585141661463e-15 5.4451297823588466e-17
rhumerus -27.95048128997963 -8.970134067867582 -77.99681296479343
rradius 30.096012366476916
rwrist 30.061820748280006
rhand -16.20213027800336 -26.46468348221468
rfingers 7.125019999999999
rthumb 10.004699605051957 -56.21360008222143
